<?xml version="1.0" standalone="no"?>
<!DOCTYPE svg PUBLIC "-//W3C//DTD SVG 20010904//EN"
 "http://www.w3.org/TR/2001/REC-SVG-20010904/DTD/svg10.dtd">
<svg version="1.0" xmlns="http://www.w3.org/2000/svg"
 width="365.000000pt" height="160.000000pt" viewBox="0 0 365.000000 160.000000"
 preserveAspectRatio="xMidYMid meet">
<metadata>
Created by potrace 1.16, written by Peter Selinger 2001-2019
</metadata>
<g transform="translate(0.000000,160.000000) scale(0.100000,-0.100000)"
fill="#000000" stroke="none">
<path d="M0 800 l0 -800 1825 0 1825 0 0 800 0 800 -1825 0 -1825 0 0 -800z
m1000 397 c0 -2 -75 -125 -166 -273 l-165 -269 155 -3 156 -3 0 -64 0 -65
-230 0 -230 0 0 68 0 69 125 202 c69 111 125 204 125 207 0 2 -56 4 -125 4
l-125 0 0 65 0 65 240 0 c132 0 240 -2 240 -3z m513 -31 c164 -84 235 -279
159 -440 -60 -125 -171 -197 -307 -197 -211 0 -364 188 -326 399 16 86 66 162
141 213 70 48 107 58 200 56 61 -2 86 -8 133 -31z m352 13 c67 -25 152 -100
183 -162 76 -152 31 -335 -106 -429 l-44 -30 78 -79 79 -79 -90 0 -89 0 -63
62 -63 62 0 63 c0 60 1 63 28 68 164 33 236 220 130 341 -36 40 -96 74 -133
74 -24 0 -25 2 -25 65 l0 65 30 0 c16 0 54 -9 85 -21z m359 9 c136 -40 232
-160 244 -304 9 -116 -55 -244 -154 -305 l-36 -22 78 -78 79 -79 -90 0 -89 0
-63 62 -63 62 0 63 c0 66 -2 64 66 78 41 8 100 58 124 106 28 53 27 134 -3
188 -28 54 -92 101 -146 108 l-41 6 0 63 c0 62 1 64 26 64 15 0 45 -5 68 -12z
m720 0 c139 -41 235 -162 244 -308 6 -104 -21 -174 -97 -251 -76 -77 -144
-103 -256 -97 -93 5 -156 33 -219 95 -116 115 -128 321 -25 446 36 44 104 93
157 112 47 17 142 19 196 3z"/>
<path d="M1271 1047 c-66 -34 -104 -94 -109 -171 -3 -49 0 -71 17 -103 92
-182 359 -142 396 60 15 79 -37 177 -116 217 -53 28 -134 27 -188 -3z"/>
<path d="M2770 1054 c-186 -81 -152 -359 48 -397 86 -17 186 36 223 118 36 77
16 188 -42 242 -56 51 -158 68 -229 37z"/>
</g>
</svg>
