<?xml version="1.0" standalone="no"?>
<!DOCTYPE svg PUBLIC "-//W3C//DTD SVG 20010904//EN"
 "http://www.w3.org/TR/2001/REC-SVG-20010904/DTD/svg10.dtd">
<svg version="1.0" xmlns="http://www.w3.org/2000/svg"
 width="628.000000pt" height="237.000000pt" viewBox="0 0 628.000000 237.000000"
 preserveAspectRatio="xMidYMid meet">
<metadata>
Created by potrace 1.16, written by Peter Selinger 2001-2019
</metadata>
<g transform="translate(0.000000,237.000000) scale(0.100000,-0.100000)"
fill="#000000" stroke="none">
<path d="M550 1885 l0 -125 251 0 c204 0 250 -2 246 -13 -3 -8 -116 -195 -251
-416 l-246 -402 0 -120 0 -119 455 0 455 0 0 120 0 120 -309 2 -310 3 38 60
c21 33 88 141 148 240 290 477 363 595 405 660 24 39 50 80 57 93 l12 22 -476
0 -475 0 0 -125z"/>
<path d="M2076 1994 c-237 -51 -429 -235 -496 -476 -24 -89 -27 -237 -5 -323
46 -183 180 -351 345 -433 324 -162 717 -37 880 279 57 111 75 183 75 309 0
127 -19 203 -77 311 -135 256 -436 394 -722 333z m306 -266 c79 -36 132 -82
178 -150 125 -188 77 -443 -108 -570 -249 -171 -600 -18 -642 281 -28 200 82
378 279 453 72 27 219 20 293 -14z"/>
<path d="M2970 1886 l0 -123 56 -6 c154 -16 299 -145 341 -304 64 -243 -112
-493 -362 -515 l-30 -3 -3 -125 -3 -124 123 -123 123 -123 175 0 175 0 -153
153 c-83 84 -152 155 -152 158 0 3 26 22 58 42 283 175 389 541 242 842 -66
136 -176 245 -315 311 -65 31 -193 64 -251 64 l-24 0 0 -124z"/>
<path d="M3720 1888 l0 -126 53 -4 c64 -5 168 -52 222 -99 50 -44 102 -127
122 -192 19 -64 19 -177 -1 -240 -42 -138 -178 -261 -311 -282 -94 -15 -85 0
-85 -138 l0 -122 123 -123 122 -122 175 0 175 0 -155 155 c-85 85 -152 156
-150 158 3 2 37 25 77 51 124 81 219 209 265 356 19 61 23 98 23 195 0 130
-10 173 -68 292 -95 196 -299 336 -523 359 l-64 7 0 -125z"/>
<path d="M4995 1994 c-38 -8 -108 -34 -155 -57 -115 -56 -239 -177 -292 -287
-189 -385 16 -835 428 -940 189 -49 403 -4 564 116 101 76 195 219 235 358 23
80 23 239 0 326 -91 346 -431 557 -780 484z m309 -267 c197 -92 294 -315 222
-512 -64 -176 -209 -278 -395 -277 -203 1 -371 145 -402 347 -31 195 78 381
264 451 52 20 77 23 157 21 79 -2 105 -7 154 -30z"/>
</g>
</svg>
